<?xml version="1.0" encoding="UTF-8"?>
<!-- Generator: Adobe Illustrator 23.1.1, SVG Export Plug-In . SVG Version: 6.00 Build 0)  -->
<svg xmlns="http://www.w3.org/2000/svg" xmlns:xlink="http://www.w3.org/1999/xlink" id="Layer_1" x="0px" y="0px" viewBox="0 0 2000 2000" style="enable-background:new 0 0 2000 2000;" xml:space="preserve">
<style type="text/css">
	.st0{fill:#4C5A64;}
</style>
<g>
	<path class="st0" d="M1472.5,1380c-0.5,2.8,45.5-1.4,19.4-8.5l0.5,0.5C1488.1,1372.4,1469.2,1364.4,1472.5,1380z"></path>
	<path class="st0" d="M1310.4,1380c21.8,6.2-8.1-17.1-26.5-9.5c-5.2,3.3,8.1,8.5,16.6,13.3c0.5-2.8,3.3-2.8,8.5-4.3l-0.5,0.5H1310.4   z"></path>
	<path class="st0" d="M1208.5,1313.6c7.1,3.3,10.9-19-3.8-3.8C1205.2,1311.3,1203.8,1311.7,1208.5,1313.6z"></path>
	<path class="st0" d="M1393.3,1379.1c3.8,2.4,9,2.4,12.8-0.5c11.4-8.5,32.2-3.8,45-6.2c15.2,0-35.5-37.9-72.5-27   c-2.8,0.9-3.3,0-5.2,1.4c-0.9,0.9-1.9,0.9,0.5,2.8c8.1,6.6,26.5,28.9-22.8,18C1345.5,1384.7,1377.7,1370,1393.3,1379.1z"></path>
	<path class="st0" d="M1339.8,1344c17.5-6.6,29.9-3.3-6.6-17.1c-15.6-9.5-28.9-23.2-46.5-31.8c-12.3-6.2-27-7.6-46.5-13.3   c-18.5-5.2-69.2,14.7-58.3,25.1c0.5-2.4,68.7-28.4,43.1-10c-0.9,0,10.9,10,14.7,2.4c0.9,3.8,6.2,6.6,11.4,2.8   c9.5,16.1,25.1-0.9,37.9,25.6c5.7,3.3,30.3-2.4,4.7,17.1c11.4-2.8,30.3,0.5,44.6-1.9c-0.5,0,0.9,0.5,0,1.4L1339.8,1344z"></path>
	<path class="st0" d="M1182.4,1306.5L1182.4,1306.5L1182.4,1306.5z"></path>
</g>
<path class="st0" d="M299.4,334.4c5.2-6.6-10.9-8.5-17.5,2.4c-1.4,2.4-4.7,2.8-6.6,1.4c-6.2-5.2-15.6,15.6-6.6,18.5  c-3.3,6.2,3.8,4.7,12.3,0c0,0.5-0.5,1.4-0.5,2.4c2.8-0.9,12.8-2.4,5.2-5.2c8.1-4.7,16.1-10.9,19-15.6  C305.6,335.3,310.3,331.1,299.4,334.4z"></path>
<path class="st0" d="M317.4,320.6c-0.9,1.9,2.8,5.7,3.8-1.4C308.9,301.7,289.9,338.2,317.4,320.6z"></path>
<path class="st0" d="M280.9,359.5c0-0.5,0-0.5,0-0.5C280,359,280,359.5,280.9,359.5z"></path>
<path class="st0" d="M316.9,307.8c-0.9,1.4-0.9,0,0,3.8C315.5,313.1,325.9,305.5,316.9,307.8z"></path>
<path class="st0" d="M1473.9,1382.4c-0.5,2.8,45.5-1.4,19.4-8.5l0.5,0.5C1489.6,1375.3,1471.1,1366.7,1473.9,1382.4z"></path>
<path class="st0" d="M1311.8,1382.4c21.8,6.2-8.1-17.1-26.5-9.5c-5.2,3.3,8.1,8.5,16.6,13.3c0.5-2.8,3.3-2.8,8.5-4.3l-0.5,0.5  H1311.8z"></path>
<path class="st0" d="M1209.9,1316.5c7.1,3.3,10.9-19-3.8-3.8C1206.6,1313.6,1205.2,1314.6,1209.9,1316.5z"></path>
<path class="st0" d="M1395.2,1381.9c3.8,2.4,9,2.4,12.8-0.5c11.4-8.5,32.2-3.8,45-6.2c15.2,0-35.5-37.9-72.5-27  c-2.8,0.9-3.3,0-5.2,1.4c-0.9,0.9-1.9,0.9,0.5,2.8c8.1,6.6,26.5,28.9-22.8,18C1346.9,1387.6,1379.6,1372.4,1395.2,1381.9z"></path>
<path class="st0" d="M1341.7,1346.3c17.5-6.6,29.9-3.3-6.6-17.1c-15.6-9.5-28.9-23.2-46.5-31.8c-12.3-6.2-27-7.6-46.5-13.3  c-18.5-5.2-69.2,14.7-58.3,25.1c0.5-2.4,68.7-28.4,43.1-10c-0.9,0,10.9,10,14.7,2.4c0.9,3.8,6.2,6.6,11.4,2.8  c9.5,16.1,25.1-0.9,37.9,25.6c5.7,3.3,30.3-2.4,4.7,17.1c11.4-2.8,30.3,0.5,44.6-1.9c-0.5,0,0.9,0.5,0,1.4L1341.7,1346.3z"></path>
<path class="st0" d="M1184.3,1309.4L1184.3,1309.4C1183.8,1309.4,1184.3,1309.4,1184.3,1309.4z"></path>
<path class="st0" d="M1427.9,260.9c0,0-0.5-2.8-0.9-7.1C1417.5,246.2,1424.2,284.6,1427.9,260.9z"></path>
<path class="st0" d="M1257.8,366.1C1256.8,369.5,1264.4,365.7,1257.8,366.1L1257.8,366.1z"></path>
<path class="st0" d="M1115.1,157.6c0,0-1.4,1.4,0,6.2c1.4-1.4,0.9,0.5,4.3-4.7C1118.9,158.5,1118.4,159,1115.1,157.6z"></path>
<path class="st0" d="M198,272.8c-0.9,0-12.8,1.9-8.5,7.1C192.3,279.4,191.8,278.5,198,272.8z"></path>
<path class="st0" d="M566.2,516.9c-1.4-10.4-18.5-15.6-10.9,19c0.5,0.9,0.5,2.4,0,3.3c-2.4,7.1,5.2,24.2,8.1,23.7  c9.5-2.8-5.2-8.5,1.9-25.6c-0.9-0.5-0.5-1.4-0.9-1.4C574.3,527.8,576.2,511.2,566.2,516.9z"></path>
<path class="st0" d="M1451.6,319.7c7.6-1.4-20.4-57.4-33.7-41.2c-3.8-5.7,5.2-15.2-0.9-23.2c-24.6,12.3-21.3,54-51.2,68.3  c-2.8,9.5,15.2-2.8,21.3,3.8c-14.2,55.9,47.9-41.7,47.9,5.2c2.4,3.3,34.1,17.1,27.5-2.4C1475.3,320.6,1437.4,328.7,1451.6,319.7z"></path>
<path class="st0" d="M1405.7,376.1c8.1,2.8,12.3-1.9,26.1-13.7C1446.4,342.9,1378.2,367.6,1405.7,376.1z"></path>
<path class="st0" d="M1272.5,116.4c0-0.9,8.1,4.7,9,7.1c1.9,11.8,29.9,23.7,41.7,3.8c-6.2,11.4-13.3-79.6-26.5-28  c-0.9,1.9-5.7-12.3-5.2-1.9C1294.8,103.6,1254.5,109.7,1272.5,116.4z"></path>
<path class="st0" d="M1430.8,173.2c-3.8,2.8-2.4,4.7-5.7,11.4C1420.8,205.5,1447.4,166.1,1430.8,173.2z"></path>
<path class="st0" d="M1123.2,147.2c1.9-1.4,2.4-5.2,4.7-11.4v-1.4C1126,135.8,1120.8,140.5,1123.2,147.2z"></path>
<path class="st0" d="M152,197.9c-3.3-3.3-34.6-8.1-25.1,8.5C131.1,221.6,151.5,216.8,152,197.9z"></path>
<path class="st0" d="M746.8-52.4h2.4c1.9-2.8-7.1-6.2-4.7,0.5L746.8-52.4z"></path>
<path class="st0" d="M294.2-36.7L294.2-36.7C294.7-36.7,294.7-36.7,294.2-36.7z"></path>
<path class="st0" d="M291.3-35.3c-0.5,0,0.9,0,2.8-1.4c-0.9,0-4.3,0.5-7.1,2.8C288.5-33.9,287.1-33.9,291.3-35.3z"></path>
<path class="st0" d="M1607.1,210.2c-1.4,0.9-2.8-6.2-11.4-2.4C1583.4,219.2,1627.5,223.5,1607.1,210.2z"></path>
<path class="st0" d="M1597.6,197.4c2.8-3.8,3.8-2.4,1.9-10.9C1597.6,180.8,1586.3,189.4,1597.6,197.4z"></path>
<path class="st0" d="M1583.4,223.5c0.5-5.2,22.8-36.5-12.3-27.5C1564,194.6,1529.4,252.9,1583.4,223.5z"></path>
<path class="st0" d="M1320.4,1521.7c0-0.1,0.1-0.1,0.1-0.2C1320.4,1521.6,1320.4,1521.6,1320.4,1521.7z"></path>
<g>
	<path class="st0" d="M1573,46.9C1573.3,47.1,1573.4,47,1573,46.9L1573,46.9z"></path>
	<path class="st0" d="M1735.6,269.5c9.5-6.2,24.6-19.9-5.2-15.6c0.5-1.9,0.5-0.5-3.8-3.8c3.8,0.5,1.4,0.5,9.5,1.4   c-2.8-1.4,4.7-4.3,2.8-10l-1.4,0.9c-6.6-3.3-8.1-29.4-16.6-3.8c2.4-8.1-3.3-8.1-3.3-14.2c-4.3-0.9-16.1,19-1.4-7.6   c-0.9-0.5-6.6,0-9,8.1c-0.5,0-3.8-9,1.9-15.6c-12.3-0.9-14.7-8.1-26.5-16.1c13.3,5.2,36-8.5,2.8-10.4c9.5-7.6,18.5,2.4,33.2,0.9   c4.3-7.1-10.9-16.1-30.8-15.6c7.1-6.2,21.3-3.8,31.3-5.7c-0.5-24.6-1.4-17.5-21.3-10.4c22.8-17.1-19.9,0.5-9.5-7.1   c51.7-5.7,7.6-49.3-20.9-3.3c-0.5-1.9,11.8-15.6,5.2-14.7c14.2-7.6,32.7-23.2-0.9-15.2c29.4-11.4,0.9-46.5-11.8-15.6   c-1.4-2.4-0.9-4.7-2.4-12.8c0-0.5-3.8,4.3-9,5.7c15.6-11.4,11.4-23.7-13.3,5.2c0-1.9,6.2-9,10.4-16.6c0.5-0.9-3.3,1.9-6.2-2.4   c18.5,4.3,24.6-25.1,0.9-10c12.8-14.7,13.3-39.8-28.4-30.8c-4.7,10.4,11.8,24.2-7.6,8.1c-9.5,6.6-7.1,36-7.6-2.8   c-3.8,7.6-11.4-17.5-10.9,6.2c0-9-28,19-14.2,0.9c0.8,0.1,1.2,0.2,1.5,0.2c-0.7-0.5-2.5-3.2,7.5-13.5c-0.9-0.5-1.4-0.5-2.4-0.5   c7.5-7.5,12.3-20.7,13.3-32.5h-58.7c0.5,1.6,1.5,3.2,2.8,5c-14.2-12.8-18,8.5-10.9,29.4c-7.6-11.4-33.2,6.6-10.4,19.4   c-10.4,22.8-0.9,16.1-29.4,19.4c33.6-5.8-1.7-33.6,30.2-73.2h-47.3c-4.4,6.4-7.6,13.1-9,19.7c-50.7,22.3,59.7,74.4-17.5,43.6   c-2.4,18-5.2,41.7,31.3,30.8c-25.6,20.9,44.1,19.9,62.1,40.8c4.3-1.4,0.5-8.5-4.7-15.2c1.4-5.7,52.6,35.5,35.1-7.6   c0,0.5,9-11.4,8.1-0.9c-1.4,13.7,17.1,5.7,8.1,27c10.4,0.9,6.2,3.8,5.7,10.4c24.2,0-10-2.8,10.9,13.3c3.3,14.2-14.7,0.9-18,16.6   c-5.7,10,17.5-3.8,28.9-4.3c-1.4,0.9-7.1,8.5-2.8,8.1c-0.9,2.8-1.4,17.1,10,5.7c3.3,1.9-13.7,20.4,4.3,11.8   c-9.5,3.8,28.4,35.5-41.2,71.1c-3.8,5.2,8.1,11.4,4.7,23.7c-16.1,0.5-33.2-3.3-34.1,17.1c1.9-57.4-97.2,27,3.8,12.3   c7.6,1.4,0-10.4,5.7-10.4c8.5,8,0.1,11.8,18.6,9.5c-3.7,1.3-0.7,27.3,9.9,23.2c-7.1,5.2,1.4,4.3,8.5,10.4   c-6.2,0.9-17.5,15.6,1.9,14.7c-14.2,4.3,110.4,86.7,45.5,10c-3.3-3.3-19.9-42.7,3.3-12.3c1.4-0.5,1.4-0.9,0.5-10   c-0.5-3.3,12.3,33.7,13.7,17.1c0.5,2.8,3.8,14.2,4.7,5.2c2.4-4.3,19,43.6,21.8-18.5c1.4,23.2,14.2,16.1,6.6-3.8   c4.7-3.3-1.3-0.6-7.8-13.3c2.1,2.1,16.9-4.3,2.6-6.1c12.8-11.8-11.4-2.4-18-29.4c4.3-0.5,4.3-13.3-7.1-8.5   c-0.5-2.4,5.7-18-4.7-21.3c5.7-5.7,28.9,34.1,15.2-8.1c0.9-2.8,8.5,19.4,8.5-1.9c10-3.8,2.8,17.5,19.4,14.7   c-8.1,7.6-0.9,12.8,19-0.5c-3.3,7.1-29.4,9.5-12.3,37.4c0.5,0.5-0.5-1.9,7.1-8.5c0.9,0-5.2,4.3-0.9,10.4c2.8-2.4,4.7-1.9,7.1,5.2   c4.3-3.3,6.6-10.4,10.4-21.3c-6.2-2.8-1.4,0.9,0.5-7.6c-1.9,10.9,20.9,9,13.3-3.3c1.4-1.4,2.8,2.4,9,0.5c-1.4-3.8-5.2-4.3-4.7-13.3   h0.5l-0.5,0.5c5.2,5.7,14.2,6.6,7.6-8.1C1770.2,291.7,1777.3,258.1,1735.6,269.5z"></path>
</g>
<path class="st0" d="M1638.5,0.5h-42.3c-0.5,7.7-1,17.7,6.6,23.9c8.5-10.9,48.8,19.4,43.1-7.1C1648.9,14.1,1645.1,7.2,1638.5,0.5z"></path>
<path class="st0" d="M1389.4,1999.3h561c3.1-20.5,4-41.6,2.7-61.4c-3.8,1.4-1.9-10.4,0.9-20.4c1.4-0.5,1.9,0,2.8-2.8  c6.2,14.7,17.1-6.2,23.7-24.2c0.5,0.5-0.5,1.4-0.5,3.3c7.2-6.2,13.4-12.2,18.5-18.1v-91.4c-37.7-33.5-112.7-47.8-138.9-38.9  c2.8-12.8-5.7,6.6-8.5,4.7c3.8-13.7,7.1-11.8,0-13.7c1.4-0.9,3.8-9.5-0.9-8.1l0.9-0.9c-3.3,0-5.7-8.5-10-1.4  c-11.8-10.9-32.7-19.4-46-15.2c-4.3-2.8-5.2,8.1-8.5,14.2c-6.2-6.2-12.8,9-20.4,18c2.8-3.3,1.9-5.2,5.7-15.6  c-10,4.3-25.6,9.5-28-13.7c-9,4.3-11.8,13.7-30.3,10.4c13.3-7.6,65.4-50.7,33.7-63.5c0-16.1-16.1-46.5-21.8-38.4  c0.9-2.4,0-10.4-5.7-6.6c0-4.3-20.4-21.8-28.9-13.7c-0.5-7.1-27.5-12.3-32.2-1.9c-0.5-1.9-19-10-21.8,0  c-1.4-8.5-16.6-28.9-24.2-16.1c4.3-11.4-1.4-23.7-18.5-31.3c-39.3,1.9-38.9-58.8-67.8-36.5c-19,9-45,0.9-78.7-3.3  c5.7-7.1-50.2-38.4-25.6-13.7c-26.1,8.1-30.8-0.9-24.6,38.4c-7.1,10.9-19.4-0.5-6.6-30.3c-12.8-9.5,5.2-9.5,9-20.4  c3.3-14.7-62.6,26.5-55.5,19.9c-9.4-1.9-14.2-1.9-24.1,15c0.2,0,0.7,0,2.3-1.3c-1.4,20.9-19.4,14.2-24.2,37.4  c-31.8-47.4-45.5-9-85.8-19c-19,0.5-41.2-40.8-25.6-63c-1.4,18,7.1-39.8,7.1-37.4c3.3-3.8-4.7-10.9-18-19  c-147.4,16.6-17.1-55-41.7-106.6c-51.2-18-68.3,90.5-146.9,50.2c-8.5-9.5-17.1-27.5-24.2-49.8c-4.7-72.5,15.6-181.5,125.6-157.4  c82.9,31.8-32.2-28,94.3-10c0,0,0,0,0.5-0.9c0.5,0.5,1.4,0,1.4,1.9h-0.9c1.4,33.7,42.2-34.1,44.6,43.6c1.4-1.9,1.4,2.8,3.8,1.4  c1.4,1.9,0,3.8-5.7,8.1c53.1,111.4,39.8-8.5,30.3-67.8l-0.5,0.5c0.5-0.5,0-1.4,0.9-4.7c0.5,2.8,5.7-6.6,4.3-7.1  c1.9-6.2,12.3-7.6,10.4-18c2.4,0.9,10.9-0.9,28-17.1c1.9-10.9,69.7-22.3,69.7-49.8c-3.3-7.6-1.4-12.8-3.3-17.5  c-1.9-4.3-6.6-8.5-20.4-14.7c11.8,5.2,18.5,7.1,12.8-8.5c9,4.7,2.4-13.7,1.9-16.1c12.3-27,11.4-5.7,8.5,24.6  c10.9,2.4,17.5-37.9,16.6-48.3c7.6,42.7,12.3-46.5,96.2-40.3c-21.3-24.2-3.8-35.5,31.3-61.6c16.6,3.8,50.2-14.7,73-28  c9.5,6.6-21.8,14.7,15.6,14.2c-1.4,1.4-40.8,4.7-46.9,23.2c0,11.4,3.3,18.5,19,8.1c121.8-58.8,38.4-5.7,4.7-73  c-3.8,2.4,19.4-12.3,8.5-16.6c-57.8-6.2,16.6-2.8,16.6-21.8c-14.2-27.5-58.3-2.4-105.7,28c10.4-8.5,15.2-17.1,6.2-22.8  c4.3,2.8,15.6,1.4,36-19.4c54.5-44.6,103.8-3.3,147.4-25.1c13.3-20.9,66.8-15.6,62.1-39.8c0,0,0.5,0,0.9,0c-0.5-0.5-0.5-0.9-0.5-1.9  c-0.9-0.5-2.4-0.5-4.3-0.9c20.4-14.2,7.1-28.9-14.2-27c24.2-8.1-17.5-21.8-4.7-13.3c-7.1,0.5-43.6,22.8-36,14.2  c8.5-9,77.7-38.9,12.3-33.7c4.7-4.7,12.8-17.1-10-7.6c20.4-17.5-22.8-33.2-8.5-41.7c0.5-11.8,0-38.9-10.9-41.7  c-6.6-10.4,10.4-27.5-4.3-26.1c3.3-2.8,1.9-18-3.3-19.9c1.4-0.9,5.7-14.2-5.7-7.6c-3.8,1.9-12.3,4.3-30.3,41.7  c-3.3-11.8-19.9-0.9-48.8,9.5c18.5-9.5,29.9-28-4.7-27.5c7.6-2.4,18.5-25.1,1.4-32.2c10.4,0.9,17.5-14.7,19.4-28  c-3.3,3.8-29.9-2.4-27-14.7c-7.1-0.5,10.9-10.9-5.7-6.6c3.3-2.4,0.9-12.8-7.1-7.6c5.2-26.5-19.4-12.8-41.7-15.6  c5.2-13.7-52.1-23.7-31.3,15.6c-7.1,3.8-4.3,11.8-16.6,20.4c3.3,0,1.9,2.4,8.5,0.9c-10,26.1,2.8,29.9-26.1,48.3  c-16.6,28.4,66.4,68.3-55.9,118.5c0.9,0.5,5.7,13.3,3.8,15.2c2.8,15.6-0.9,49.3-13.3,74.4c2.4-15.6-21.8-11.4-10.4,10  c-2.4-3.3-6.2-18.5-16.1-14.2c5.7-8.1-0.5-24.6-13.3-25.1c-2.4-37.4,38.4-99.1-33.7-79.2c1.4-19-64-84.4-98.6-64.5  c12.8-7.6,17.1-86.3-10.9-41.7c-5.7-35.1,23.2-73.5,49.8-106.6c13.3,2.8,6.2-22.8,18.5-4.3c-10-13.7,81.5-32.2,18.5-43.6  c10-1.4-0.5-12.3-10.4-13.3c3.3,4.3-5.7,2.8-1.4-8.1c3.8,5.2,47.9,42.2,48.8,13.3c6.6-10.4,8.5,3.3,15.2-0.5  c111.9-22.8-56.9-81.5,13.7-61.1l-0.5-2.4c30.8,37.4,47.9,24.6,58.3-12.8c11.4,2.8,26.5,24.6,32.2,10.4c-0.9,0.5,1.4-23.7-8.1-17.5  c3.3-14.2,12.8,10.9,15.6,21.3c21.3-14.2,51.7-10.4,39.8-63c-9.5-8.5,41.2-5.7,14.2-20.4c14.7-7.1,12.8-7.6-1.4-24.2  c18.5,1.4-33.7-35.5-37.9-5.7c8.5,17.1-59.2,90.1-62.6,67.8c44.1-156.4-44.1,28.4-15.2-75.8c0,6.6,4.3-5.2,10.4-3.8  c-2.4-3.3-3.8-3.3-12.8-5.2c10.4-11.4-33.7,7.1,0-28.9c10.9,33.2,14.7-126.1-25.1-50.7c-19.9-11.8-19.4,24.2-17.5,29.4  c-37.9,8.1,0.5,39.8,10,48.8c-3.3,0.5-17.5,3.3-10.4,9c-25.1,20.4,7.6-2.4,0,20.9c-33.2,8.1-81.1,83.4-39.8,5.2  c-3.3-0.9-8.5,4.3-13.7,5.7c0-1.4,3.8-3.8,7.1-7.1c-10-10-27-19.4-30.3,4.3c4.3,0.9,20.9,12.8,6.2,15.6c-12.8-25.6-39.3,2.8-90.1-36  c1.4-65.4-61.1-23.2-51.2-16.1c0,5.7,50.2-16.1,40.8-5.7c-51.2,20.4-38.4,18-49.8,52.6c-4.3-4.7-8.5,0.9-7.6,19.9  c-3.3-6.6-3.3-15.2-6.2-28c10.9,15.2,13.7-31.8,0.5-12.8c4.7-11.4-1.9-19.4-15.6-20.9c-136.5-2.8,14.2-47.9-55.9-55  c-54-27-36.5-77.7-101.4-50.7c-0.8,0.3,3.5-6.9,8-14.5h-11.6c-10.3,19.2-14.1,13-15.4,0H815.6c-5,3.1-9.5,4.7-11.9,2.2  c0.1-0.8,0.2-1.5,0.4-2.2H253.8c1.6,1.5,3.1,3,4.4,4.5c-2.8-2.4-8.1,7.6-12.8,1.9c-12.8,50.7,10.9,19,34.1,46c0,0.9,2.8-3.3,5.2-9  c-0.9,4.3,4.3,1.9-1.4,12.8c77.7-44.6,5.7,55-45.5,48.8c12.3-4.7-5.7-21.8-9-2.8c-2.4-1.9-9.5-1.9-15.6,14.2c0.5,0,0.5-0.5,4.7-2.4  c0.5,1.9-7.1,1.9-7.6,8.1c-12.8-4.3-31.3,21.8-40.8,31.8c4.7,6.2-0.9,17.5,8.1,16.1c-0.9,0.9-3.3,4.3,1.9,3.8  c-11.8,1.4-2.4,17.5,13.3,9.5c0.9,2.8,3.3,3.8-4.7,3.8c2.4,1.9,10.9,6.6-2.8,10.4c-0.5-5.2,3.8-11.4-9.5-2.4  c6.6-4.7,6.6-22.3-14.7-2.4c12.3,50.2,6.2,39.8,49.8,10c-10.4,9.5-27,47.9-22.8,55.9c-4.3,0-4.3,12.8-16.1,15.2  c6.6,4.7,17.1-1.9,34.1-8.1c0,1.4-0.5,14.2,7.6,7.6c3.3,11.4-3.3,37.9,14.2,0.5c1.4,6.2,8.1-10,10.9,2.4  c-6.6-11.8-24.6,33.2,22.3-0.5c0.5,7.6-28,18-22.3,31.3c-7.1-3.8-16.6,14.7-17.1,23.2c-3.3-13.7-31.8,25.6-31.8,16.1  c-19,0-51.7,46.9-45,23.7c-1.4,0.5-7.6,1.9-4.3-1.9c-11.4,0-37,15.2-50.2,31.3l-1.4,4.3c0.5-1.4,0.9-2.4,1.4-3.3  c11.4-6.6,79.6-28,68.7-14.2c4.3-3.3,27-18.5,24.6-10.4c2.4-1.4,0.5-0.9,5.7-3.8c-7.1-6.6,5.7-8.1,8.5-11.4  c118.5-40.3,127.5-134.1,220.9-144.1c-13.7,4.7-19.9,10.9-8.5,22.3c-11.8-8.5-25.1-9-42.2,6.2c-18,14.2-13.3,31.3-10.9,31.3  c-35.5,12.3-10,24.2,27-4.7c0,0.9,0-0.5-0.9,5.2c0,2.4,8.5-16.1,12.3-8.1c-0.5,17.5,43.1-22.8,16.6-14.7c2.8-1.4,5.7-9,14.2-18.5  c-6.2-0.9,0.5,0.5,9.5-4.3c-3.8,2.8-14.7,15.6,0,7.6c2.4,8.5,9-2.8,21.3,0c-2.8,0.5-13.3,3.8-6.6,10.4c-5.7,2.8-1.9,6.2,7.6,8.1  c-0.9,0.9-1.4,1.9-6.6,5.2c8.5,4.7,6.2,7.6,21.8-2.8c-26.5,19,22.3,34.1,40.3,31.8c-11.4,27.5,24.2,2.4,31.3,16.1  c-3.3-0.9-4.3-0.5-7.1,4.7c-6.2-24.6-7.1,27,14.7,46.9c9.5,2.4,17.5-18,20.9-14.2c-2.8,10.4-4.3,21.3-5.2,31.8  c-2.4-0.9-6.2-1.9-10.9-2.8c-2.4,5.7-0.9,7.6,2.8,22.8c2.4-1.4,5.2-3.3,7.6-5.2c0,1.9,0,3.8,0,5.7c-0.9,0.5-1.9,0.9-2.8,2.4  c-1.9,1.9-1.9,4.3-0.9,6.6c0.9,1.9-1.9,7.6-0.5,11.4c-2.8,24.6,1.9,18,5.7,6.2c0,0.5,0,0.9,0,1.4c-5.2,10.4-10,30.3,1.9,13.3  c0.9,5.7,1.9,10.9,3.3,16.6c-4.3,4.7-5.7,15.6,5.7,33.2c0.5-1.4,0.9-2.8,0.9-4.3c4.3,16.1,8.5,31.3,12.8,46.5  c-8.5-10.4,1.4,20.9,2.8,9.5c1.4,5.7,2.8,11.4,4.3,17.1c0,0,0,0.5-0.5,0.5c0,0.5,0,1.4,1.9,8.1h0.5c4.3,20.4,6.6,39.3,4.7,56.9  c0-0.5-2.4,0.9-1.9,5.2c-17.5-21.3,20.4,64,43.6,58.3l1.9,11.8c-33.7-23.7-17.5,11.4-22.8,39.3c-6.6,25.1-38.9,103.8-45,147.9  c-4.2-1.9-4.7,32.2,7.3,61.6c-0.4-0.9-0.8-0.7-2.1,4.7l0.9-2.4c9.5,15.6,16.6,52.6,23.2,84.4c4.7,0,50.7,11.8,46,42.2  c3.3,35.1,44.6,78.7,33.7,102.9c-27.5-6.2,0.9,29.9,16.6,19.9c32.7,120.4,72.5,65.4,39.8,59.7c-7.6-55.9-55.9-101.9-53.6-164  c37.9,14.2,49.3,85.8,79.2,119.9c-2.4-2.4,5.7,19.4,16.6,25.1c56.9,73.5,19.4,84.8,40.8,112.8c55,37,120.4,79.6,167.8,58.8  c60.7,45.5,53.1,27.5,133.7,75.4c9,11.8,28.4,64.9,23.7,33.7c15.2,14.2,40.8,50.7,70.6,41.7c23.7,36.5-2.4-40.8,51.2-10.4  c0.9,1.9,0.5,2.4,5.7,6.2c-27.5-7.6,16.6,32.7,2.4,45c2.8,2.4,6.6,17.1-0.5,23.2c2.4,0,2.4-1.4,2.4,4.3c10-5.2-1.9,13.3-12.8,24.2  c0.5-1.4-3.3-1.4-0.9,0.5c-0.9,0.5,0,0-3.3-0.5c0,15.2-32.7,25.6-33.2,54c-13.7-2.8-14.2,49.8,4.7,29.9c0,0.5,0,0.9,0,1.4  c-25.6,57.4-28.9,52.1-3.3,70.6C1331.6,1977.2,1336.7,1962,1389.4,1999.3z M1479.6,800.3c-20.9,13.7-28.9,20.9-47.4,30.3  c-0.5-2.8-5.7,0.9-4.3-5.2C1426.5,825.4,1455.4,814.1,1479.6,800.3z M1355.9,113.5c0.5,0.5,0.9,0.9,0.9,0.9l1.4,0.5  C1355.9,118.3,1345.5,122,1355.9,113.5z M1280.5,189.4c-0.9,3.8,4.7,4.7,9,4.3c-2.8,2.8-5.7,6.2-7.6,10  C1282,199.8,1277.7,193.1,1280.5,189.4z M1270.6,896.5c13.7,7.1,20.4-12.3,34.6-11.4c13.7,4.3,21.3-9,36.5-2.4  C1328.9,904.1,1233.1,923.1,1270.6,896.5z M1273,890.8c0.9,0,3.3-3.8,4.3-6.2C1280.1,881.4,1290,898.9,1273,890.8z M1348.3,859.6  c8.5-2.4,19,4.3,27.5,3.8c7.1-5.2,27.5-19,20.9-11.4c-12.8,9.5,0,13.7-13.7,18.5C1360.6,878.5,1298.5,875.7,1348.3,859.6z   M1337.9,850.6c-1.4-2.8,1.9-5.7,4.3-10.9C1344.1,843.4,1345,846.3,1337.9,850.6z M1209,740.6c7.6-15.6,28.9-10.4,44.1-1.9  c1.4,5.2-0.9,11.4,2.4,16.1c12.8,4.7,16.6,0.9,14.7,19.4c2.4,5.2-2.4,17.1,1.4,19c3.3-0.9,2.8-0.9,3.3,0c-5.7,5.7,36,10.4,38.9,16.6  c16.6,0,20.4,9,25.6,28.4c0.5-2.8,5.7,2.4-1.9-0.5c-11.4-6.2,3.8,12.3-19.4,1.4c-1.4-3.8,0.5-9-8.1-14.7  c6.6,9.5-20.4,62.6-25.1,46.5c5.2-37.9-12.8-8.5-20.9-11.4c29.4-28.9,6.6-73.9-19.9-30.3c0-0.9,1.4-3.8-0.9,0c0,0.5-3.3,4.7-0.9-1.9  c0.5-0.9,0.5-1.4,0.5-1.9c0.5-0.5,1.4-1.9,2.4-3.8c-0.5,0-0.9,0.5-1.4,0.5c0,0-0.9,0-2.4,0.5v0.5c-24.2,13.3-12.3,51.2-28.9,69.7  c-40.3,30.8-5.2-59.2,6.6-73c-6.6,6.2-17.5,15.6-16.6,11.8c1.4-2.4,9.5-10.4,19.4-23.2c6.2-4.7,12.3-3.3,34.6-5.7  c24.2,4.7,23.2-3.8,8.5-9.5c-4.7-14.2-18-6.2-38.4-10c-15.6-0.9-17.1-13.7-30.3-8.1c-11.8,4.7-33.7,13.7-28.9-1.4  c-4.3,0-12.3,7.1-19.9,2.8C1150.2,775.7,1200.4,743,1209,740.6z M590.6,946.9c0.2,0.6,0.5,1.2,0.7,1.7  C591.1,948.2,590.9,947.5,590.6,946.9z"></path>
</svg>
