            <svg width="64" height="64" viewBox="0 0 64 64" xmlns="http://www.w3.org/2000/svg">
                <path d="M32.0001 63.8779C49.6058 63.8779 63.878 49.6058 63.878 31.9999C63.878 14.3942 49.6058 0.121943 32.0001 0.121943C14.3943 0.121943 0.122009 14.3942 0.122009 31.9999C0.122009 49.6058 14.3943 63.8779 32.0001 63.8779Z" fill="#7c8b97"></path>
                <path d="M15.3815 31.908L20.8218 26.4543C21.0021 26.2705 21.1028 26.0271 21.1028 25.769C21.1028 25.231 20.6655 24.7942 20.1276 24.7942C19.8655 24.7942 19.6199 24.8969 19.4347 25.0844C19.4341 25.0855 13.9993 30.5172 13.9993 30.5172L8.53964 25.0763C8.35516 24.8944 8.11071 24.7942 7.8515 24.7942C7.31422 24.7942 6.87683 25.2308 6.87683 25.7682C6.87683 26.0303 6.98149 26.2763 7.16933 26.4617L12.6088 31.9004L7.17215 37.3472C6.98105 37.5354 6.87683 37.7819 6.87683 38.0452C6.87683 38.5831 7.31422 39.0194 7.8515 39.0194C8.11114 39.0194 8.35581 38.9186 8.53964 38.7347L13.9908 33.2909L19.4213 38.7148C19.6139 38.914 19.8624 39.02 20.1276 39.02C20.665 39.02 21.1022 38.5831 21.1022 38.0452C21.1022 37.7857 21.0017 37.5419 20.8187 37.3581L15.3815 31.908Z" fill="white"></path>
                <path d="M47.7228 31.906C47.7228 32.8827 48.517 33.6772 49.495 33.6772C50.4706 33.6772 51.2651 32.8827 51.2651 31.906C51.2651 30.929 50.4706 30.1346 49.495 30.1346C48.517 30.1346 47.7228 30.929 47.7228 31.906Z" fill="white"></path>
                <path d="M44.3635 31.9067C44.3635 29.0782 46.6645 26.7768 49.4933 26.7768C52.3206 26.7768 54.6221 29.0782 54.6221 31.9067C54.6221 34.7345 52.3206 37.0349 49.4933 37.0349C46.6645 37.0349 44.3635 34.7345 44.3635 31.9067ZM42.3456 31.9067C42.3456 35.8472 45.5521 39.0532 49.4933 39.0532C53.4343 39.0532 56.6424 35.8472 56.6424 31.9067C56.6424 27.9656 53.4343 24.7587 49.4933 24.7587C45.5521 24.7587 42.3456 27.9656 42.3456 31.9067Z" fill="white"></path>
                <path d="M41.8382 24.8812L41.5384 24.8804C40.6381 24.8804 39.7698 25.1643 39.0446 25.7232C38.949 25.2859 38.5582 24.9568 38.0926 24.9568C37.5567 24.9568 37.1273 25.3862 37.126 25.9231C37.126 25.9251 37.1293 37.9615 37.1293 37.9615C37.1307 38.4974 37.5679 38.9331 38.1041 38.9331C38.6402 38.9331 39.0772 38.4974 39.0786 37.9603C39.0786 37.9579 39.0791 30.5582 39.0791 30.5582C39.0791 28.0911 39.3047 27.0948 41.418 26.8307C41.6133 26.8064 41.8258 26.8102 41.8266 26.8102C42.4049 26.7903 42.8158 26.393 42.8158 25.8559C42.8158 25.3185 42.3772 24.8812 41.8382 24.8812Z" fill="white"></path>
                <path d="M23.1219 30.7306C23.1219 30.7039 23.124 30.6761 23.1253 30.6487C23.6912 28.4116 25.7172 26.7562 28.1301 26.7562C30.5722 26.7562 32.6167 28.4523 33.1537 30.7306H23.1219ZM35.1498 30.5465C34.7297 28.5578 33.641 26.9243 31.983 25.8752C29.5595 24.3366 26.3593 24.4217 24.0184 26.0864C22.109 27.4448 21.0068 29.6669 21.0068 31.9559C21.0068 32.5298 21.076 33.1092 21.22 33.6794C21.941 36.5157 24.3792 38.6628 27.2862 39.0186C28.1489 39.123 28.9885 39.073 29.858 38.8479C30.6051 38.6661 31.3281 38.3631 31.9942 37.9362C32.6856 37.4918 33.2632 36.9057 33.8226 36.2041C33.8339 36.1912 33.8453 36.1798 33.8566 36.1663C34.2448 35.6847 34.1728 35 33.7461 34.6731C33.3863 34.3973 32.7822 34.2855 32.3069 34.8942C32.2047 35.0398 32.0907 35.1895 31.9652 35.3393C31.5873 35.757 31.1183 36.1616 30.5564 36.4755C29.8414 36.8575 29.0266 37.0758 28.1604 37.0806C25.3252 37.0491 23.808 35.07 23.2684 33.6574C23.1741 33.3937 23.1014 33.12 23.0508 32.8383C23.0442 32.7856 23.0393 32.7347 23.0373 32.6879C23.6235 32.6879 33.2116 32.6862 33.2116 32.6862C34.6064 32.6569 35.3571 31.6724 35.1498 30.5465Z" fill="white"></path>
            </svg>