<svg width="64" height="64" viewBox="0 0 64 64" xmlns="http://www.w3.org/2000/svg">
                <path d="M31.9088 63.4554C49.3878 63.4554 63.5572 49.2859 63.5572 31.807C63.5572 14.3281 49.3878 0.158691 31.9088 0.158691C14.4299 0.158691 0.260498 14.3281 0.260498 31.807C0.260498 49.2859 14.4299 63.4554 31.9088 63.4554Z" fill="currentColor"></path>
                <path d="M9.04846 31.806C9.04846 38.6032 14.5588 44.1135 21.3562 44.1135H23.1144V39.5421H21.3562C17.0904 39.5421 13.6199 36.0716 13.6199 31.806C13.6199 27.5401 17.0904 24.0697 21.3562 24.0697H25.5813C25.5813 24.0697 25.5813 47.5293 25.5813 47.9817C25.5813 50.5064 27.628 52.5531 30.1527 52.5531V19.4983C30.1527 19.4983 25.4219 19.4983 21.3562 19.4983C14.5588 19.4983 9.04846 25.0088 9.04846 31.806ZM42.4614 19.5001H40.7031V24.0715H42.4614C46.7272 24.0715 50.1976 27.542 50.1976 31.8078C50.1976 36.0736 46.7272 39.5439 42.4614 39.5439H38.2362C38.2362 39.5439 38.2362 16.0843 38.2362 15.632C38.2362 13.1071 36.1895 11.0605 33.6648 11.0605V44.1154C33.6648 44.1154 38.3956 44.1154 42.4614 44.1154C49.2587 44.1154 54.7691 38.6049 54.7691 31.8078C54.7691 25.0105 49.2587 19.5001 42.4614 19.5001Z" fill="white"></path>
            </svg>