<svg width="23" height="21" xmlns="http://www.w3.org/2000/svg" viewBox="0 0 23 21">
<path fill="#ffde6e" d="M11.2674.7555l-3.2381 5.959-7.223.955c-.5373.079-.806.2798-.806.6023 0 .184.12.3931.36.6283l5.2367 4.636-1.237 6.5478c-.0193.1218-.0286.2092-.0286.2612 0 .184.0499.3386.1505.4654.1015.126.252.1898.4542.1898.1726 0 .3637-.0529.576-.157l6.4043-3.0635V.2229c-.2622.0227-.4791.1991-.649.5326"></path>
<path fill="#cddcea" d="M22.9484 8.272c0-.3226-.2494-.5233-.7483-.6023l-6.7071-.955L12.486.7556c-.1688-.3579-.3874-.5368-.6548-.5368-.0172 0-.0343.0025-.0515.0042v17.556l.0515-.0269 5.9991 3.0912c.1877.1042.3651.1563.5349.1563.1782 0 .3145-.063.408-.189.0925-.1277.1397-.2814.1397-.4654 0-.1134-.0043-.2008-.0137-.2612l-1.1478-6.5478 4.8498-4.636c.2314-.226.3471-.436.3471-.6283"></path>
                                    </svg>