<svg width="207" height="47" viewBox="0 0 207 47" fill="#7c8b97" xmlns="http://www.w3.org/2000/svg">
                <path d="M56.8497 22.6379C59.9913 22.6379 62.1 24.0609 63.3911 25.8288V0.647102C63.3911 0.17279 62.8316 -0.129044 62.4443 0.172791L31.4158 22.8966H32.2335C35.4612 22.8966 37.0965 24.9664 37.0965 27.2086C37.0965 28.9765 36.1928 30.27 34.9447 30.8306C34.7296 30.9168 34.7296 31.2187 34.9447 31.3049C36.3649 31.9086 37.3978 33.4177 37.3978 35.2288C37.3978 37.8159 35.7194 39.8425 32.4917 39.8425H23.6695C23.4973 39.8425 23.3252 39.7132 23.3252 39.4976V28.804L0.215215 45.7499C-0.172103 46.0948 3.72427e-05 46.6985 0.516461 46.6985H62.8316C63.1329 46.6985 63.3481 46.4829 63.3481 46.1811V37.6003C61.6697 39.1526 59.4749 40.1444 56.8067 40.1444C51.8146 40.1444 47.7693 36.6948 47.7693 31.3911C47.8123 26.0444 51.9007 22.6379 56.8497 22.6379ZM44.4986 39.5407C44.4986 39.7132 44.3695 39.8425 44.1973 39.8425H41.2279C41.0558 39.8425 40.9267 39.7132 40.9267 39.5407V23.1985C40.9267 23.026 41.0558 22.8966 41.2279 22.8966H44.1973C44.3695 22.8966 44.4986 23.026 44.4986 23.1985V39.5407Z"></path>
                <path d="M27.2844 29.6227H31.4588C32.6638 29.6227 33.4385 28.9328 33.4385 27.8548C33.4385 26.8199 32.6638 26.0869 31.4588 26.0869H27.1123C27.0262 26.0869 26.9401 26.1731 26.9401 26.2594V29.3209C26.9401 29.4933 27.1123 29.6227 27.2844 29.6227Z"></path>
                <path d="M27.2844 36.6942H31.631C32.9651 36.6942 33.7827 35.9612 33.7827 34.7538C33.7827 33.6759 33.0081 32.8135 31.631 32.8135H27.2844C27.1123 32.8135 26.9401 32.9428 26.9401 33.1584V36.3493C26.9401 36.5217 27.1123 36.6942 27.2844 36.6942Z"></path>
                <path d="M60.6798 27.769C59.8622 26.691 58.485 25.8286 56.8497 25.8286C53.7511 25.8286 51.5133 28.2002 51.5133 31.391C51.5133 34.5818 53.7511 36.9534 56.8497 36.9534C58.2699 36.9534 59.6039 36.3497 60.3355 35.746C60.3786 35.7029 60.4216 35.6167 60.4216 35.5304V33.8919C60.4216 33.7626 60.2925 33.6332 60.1634 33.6332H56.3333C56.1181 33.6332 55.989 33.4607 55.989 33.2882V30.8736C55.989 30.658 56.1611 30.5286 56.3333 30.5286H63.4341V26.691L61.1532 27.9415C60.9811 27.9846 60.7659 27.8983 60.6798 27.769Z"></path>
                <path d="M66.0593 31.3909C66.0593 26.1735 69.8033 22.6377 74.6233 22.6377C77.7649 22.6377 79.7876 24.2331 80.9925 26.1735C81.0786 26.3028 81.0356 26.5184 80.8634 26.5616L78.9268 27.5964C78.7977 27.6827 78.6256 27.6395 78.5826 27.5102C77.7649 26.2166 76.2586 25.268 74.6233 25.268C71.3956 25.268 68.9857 27.812 68.9857 31.3909C68.9857 34.9267 71.3956 37.5138 74.6233 37.5138C76.2586 37.5138 77.7649 36.5652 78.5826 35.2716C78.6686 35.1423 78.7977 35.0992 78.9268 35.1854L80.8634 36.1771C81.0356 36.2634 81.0786 36.4359 80.9925 36.6083C79.7445 38.5487 77.7218 40.1872 74.6233 40.1872C69.8033 40.1441 66.0593 36.5652 66.0593 31.3909Z"></path>
                <path d="M82.6709 31.391C82.6709 27.1653 85.0809 23.8882 88.6959 22.9396C94.8499 21.3011 100.488 27.079 99.1534 33.5038C98.3358 37.4708 95.1942 40.1873 91.0198 40.1873C86.1137 40.1442 82.6709 36.4359 82.6709 31.391ZM96.3992 31.391C96.3992 27.8983 94.2474 25.268 90.9767 25.268C87.663 25.268 85.5543 27.8983 85.5543 31.391C85.5543 34.8836 87.663 37.5139 90.9767 37.5139C94.2904 37.5139 96.3992 34.8405 96.3992 31.391Z"></path>
                <path d="M116.884 39.6264V26.7338L111.763 39.7127C111.763 39.7558 111.677 39.7989 111.634 39.7989H110.558C110.515 39.7989 110.429 39.7558 110.429 39.7127L105.264 26.7338V39.6264C105.264 39.7558 105.178 39.842 105.049 39.842H102.467C102.338 39.842 102.252 39.7558 102.252 39.6264V23.0686C102.252 22.9393 102.338 22.853 102.467 22.853H106.168C106.34 22.853 106.469 22.9393 106.556 23.1117L111.074 34.7539L115.55 23.1117C115.593 22.9393 115.765 22.853 115.937 22.853H119.638C119.767 22.853 119.853 22.9393 119.853 23.0686V39.6264C119.853 39.7558 119.767 39.842 119.638 39.842H117.056C117.013 39.842 116.884 39.7558 116.884 39.6264Z"></path>
                <path d="M146.148 39.54V23.1978C146.148 23.0254 146.277 22.896 146.449 22.896H157.423C157.595 22.896 157.725 23.0254 157.725 23.1978V25.1813C157.725 25.3538 157.595 25.4832 157.423 25.4832H149.419C149.247 25.4832 149.118 25.6125 149.118 25.785V29.5364C149.118 29.7088 149.247 29.8382 149.419 29.8382H157.251C157.423 29.8382 157.552 29.9675 157.552 30.14V32.1235C157.552 32.296 157.423 32.4253 157.251 32.4253H149.419C149.247 32.4253 149.118 32.5547 149.118 32.7272V36.8235C149.118 36.996 149.247 37.1254 149.419 37.1254H157.423C157.595 37.1254 157.725 37.2547 157.725 37.4272V39.4107C157.725 39.5831 157.595 39.7125 157.423 39.7125H146.449C146.277 39.8419 146.148 39.7125 146.148 39.54Z"></path>
                <path d="M171.496 39.6694L167.924 33.6327C167.881 33.5465 167.752 33.5033 167.666 33.5033H165.17C164.997 33.5033 164.868 33.6327 164.868 33.8052V39.54C164.868 39.7125 164.739 39.8419 164.567 39.8419H162.243C162.071 39.8419 161.942 39.7125 161.942 39.54V23.1978C161.942 23.0254 162.071 22.896 162.243 22.896H169.387C172.744 22.896 174.939 25.052 174.939 28.1997C174.939 31.0024 173.217 32.5978 171.324 33.0721C171.108 33.1153 171.022 33.3309 171.108 33.5465C171.797 34.6676 173.949 38.1171 174.767 39.3676C174.896 39.5832 174.767 39.8419 174.508 39.8419H171.797C171.668 39.8419 171.582 39.7987 171.496 39.6694ZM171.883 28.1565C171.883 26.518 170.678 25.4832 169 25.4832H165.213C165.041 25.4832 164.911 25.6125 164.911 25.785V30.5712C164.911 30.7437 165.041 30.8731 165.213 30.8731H169C170.678 30.8731 171.883 29.8382 171.883 28.1565Z"></path>
                <path d="M194.993 39.54V23.1978C194.993 23.0254 195.122 22.896 195.294 22.896H206.311C206.484 22.896 206.613 23.0254 206.613 23.1978V25.2244C206.613 25.3969 206.484 25.5263 206.311 25.5263H198.264C198.092 25.5263 197.963 25.6556 197.963 25.8281V29.6226C197.963 29.7951 198.092 29.9244 198.264 29.9244H206.096C206.268 29.9244 206.398 30.0538 206.398 30.2263V32.2529C206.398 32.4254 206.268 32.5547 206.096 32.5547H198.264C198.092 32.5547 197.963 32.6841 197.963 32.8565V36.996C197.963 37.1685 198.092 37.2978 198.264 37.2978H206.311C206.484 37.2978 206.613 37.4272 206.613 37.5997V39.6263C206.613 39.7987 206.484 39.9281 206.311 39.9281H195.294C195.122 39.8419 194.993 39.7125 194.993 39.54Z"></path>
                <path d="M177.09 31.3045C177.09 26.0871 180.835 22.5513 185.654 22.5513C188.796 22.5513 190.819 24.1467 192.024 26.087C192.11 26.2164 192.067 26.432 191.895 26.4751L189.958 27.51C189.829 27.5962 189.657 27.5531 189.614 27.4237C188.796 26.1302 187.29 25.1815 185.654 25.1815C182.427 25.1815 180.017 27.7256 180.017 31.3045C180.017 34.8403 182.427 37.4274 185.654 37.4274C187.29 37.4274 188.796 36.4788 189.614 35.1852C189.7 35.0559 189.829 35.0127 189.958 35.099L191.895 36.0907C192.067 36.177 192.11 36.3494 192.024 36.5219C190.776 38.4623 188.753 40.1008 185.654 40.1008C180.835 40.0577 177.09 36.5219 177.09 31.3045Z"></path>
                <path d="M138.832 39.6264V26.7338L133.711 39.7127C133.711 39.7558 133.625 39.7989 133.582 39.7989H132.506C132.463 39.7989 132.377 39.7558 132.377 39.7127L127.212 26.7338V39.6264C127.212 39.7558 127.126 39.842 126.997 39.842H124.415C124.286 39.842 124.2 39.7558 124.2 39.6264V23.0686C124.2 22.9393 124.286 22.853 124.415 22.853H128.116C128.288 22.853 128.417 22.9393 128.504 23.1117L133.022 34.7539L137.498 23.1117C137.541 22.9393 137.713 22.853 137.885 22.853H141.586C141.715 22.853 141.801 22.9393 141.801 23.0686V39.6264C141.801 39.7558 141.715 39.842 141.586 39.842H139.004C138.918 39.842 138.832 39.7558 138.832 39.6264Z"></path>
            </svg>