<svg width="167" height="49" viewBox="0 0 167 49" fill="#7c8b97" xmlns="http://www.w3.org/2000/svg">
                <path fill-rule="evenodd" clip-rule="evenodd" d="M36.3114 9.4006C36.4741 9.4006 36.691 9.50934 36.7181 9.75401C36.7272 9.83586 37.2946 13.6934 38.0447 18.7932C39.5369 28.9379 41.7522 43.9984 41.7341 44.0346L27.4181 47.1337L1.03638 42.186C1.03638 42.186 4.4256 15.8979 4.56117 14.9736C4.72385 13.7502 4.75096 13.7231 6.05242 13.3153C6.15529 13.2711 6.68827 13.1071 7.52617 12.8493C8.23421 12.6314 9.15998 12.3466 10.2279 12.0104C11.1227 8.20445 13.9968 0.728516 19.9618 0.728516C20.721 0.728516 21.6428 1.16348 22.3478 2.08778H22.5918C25.1676 2.08778 26.6047 4.28978 27.4452 6.70927C28.2857 6.43741 28.8009 6.2743 28.828 6.2743C29.0449 6.21993 29.5601 6.13838 29.8312 6.41023C30.1295 6.65489 32.5968 9.12875 32.5968 9.12875C32.5968 9.12875 36.1487 9.4006 36.3114 9.4006ZM23.7577 7.79668C24.544 7.52482 25.3303 7.28016 25.981 7.08986C25.4117 5.35 24.5711 3.85482 23.2154 3.6917C23.5679 4.64319 23.7577 5.83933 23.7577 7.30734V7.79668ZM22.158 8.01415C22.158 6.21993 21.914 4.91504 21.5615 3.99074C20.1516 4.616 18.4434 6.30148 17.5487 9.72682C18.508 9.41708 19.4478 9.12688 20.3623 8.84452C20.9727 8.65602 21.5719 8.47102 22.158 8.28601V8.01415ZM20.5854 2.57711C20.3685 2.414 20.0974 2.30526 19.8262 2.30526C15.5422 2.30526 13.102 7.95979 12.1259 11.4395C12.752 11.2351 13.3937 11.0386 14.051 10.8373C14.6178 10.6637 15.1962 10.4865 15.7863 10.2977C16.6268 5.73059 18.6603 3.47422 20.5854 2.57711ZM20.8567 22.5315L22.592 17.2847C22.592 17.2847 21.399 16.5779 19.0672 16.6051C12.804 16.6051 9.71299 20.7916 9.71299 25.1141C9.71299 28.0192 11.3255 29.3333 12.7366 30.4834C13.8344 31.3781 14.8104 32.1735 14.8104 33.5415C14.8104 34.3027 14.2681 35.3357 12.9395 35.3357C10.9331 35.3357 8.54709 33.2696 8.54709 33.2696L7.32697 37.2931C7.32697 37.2931 9.60453 40.1203 14.1596 40.1203C17.9285 40.1203 20.7212 37.2659 20.7212 32.8347C20.7212 29.4283 18.4362 27.7452 16.6325 26.4167C15.4564 25.5504 14.485 24.8349 14.485 23.8907C14.485 23.4558 14.6206 21.6887 17.4133 21.6887C19.2841 21.6887 20.8567 22.5315 20.8567 22.5315Z"></path>
                <path d="M58.4365 27.1527C56.9994 26.3916 56.2674 25.7119 56.2674 24.8148C56.2674 23.673 57.2977 22.939 58.8974 22.939C60.7682 22.939 62.4222 23.7002 62.4222 23.7002L63.7236 19.704C63.7236 19.704 62.5306 18.7797 59.0058 18.7797C54.0983 18.7797 50.6819 21.607 50.6819 25.576C50.6819 27.8324 52.2816 29.545 54.3965 30.7684C56.1318 31.7199 56.7283 32.4267 56.7283 33.4597C56.7283 34.5199 55.8607 35.3899 54.2609 35.3899C51.902 35.3899 49.6516 34.1665 49.6516 34.1665L48.2688 38.1628C48.2688 38.1628 50.3294 39.5492 53.8 39.5492C58.8432 39.5492 62.5035 37.0482 62.5035 32.5626C62.4493 30.1159 60.6327 28.4304 58.4365 27.1527ZM78.5549 18.7253C76.0604 18.7253 74.1082 19.9215 72.617 21.7157L72.5627 21.6885L74.7318 10.3795H69.1193L63.6423 39.1958H69.2549L71.1257 29.3547C71.8578 25.6304 73.7829 23.3196 75.5724 23.3196C76.8467 23.3196 77.3348 24.1896 77.3348 25.4129C77.3348 26.1741 77.2805 27.1527 77.0907 27.9139L74.9759 39.1958H80.5884L82.7846 27.5605C83.0287 26.3372 83.1913 24.8692 83.1913 23.8633C83.1642 20.6283 81.5103 18.7253 78.5549 18.7253ZM95.8806 18.7253C89.1021 18.7253 84.6284 24.842 84.6284 31.6655C84.6284 36.0151 87.3126 39.5492 92.3558 39.5492C98.9987 39.5492 103.472 33.5956 103.472 26.609C103.5 22.5584 101.168 18.7253 95.8806 18.7253ZM93.115 35.2539C91.1899 35.2539 90.4036 33.6228 90.4036 31.5568C90.4036 28.3217 92.0575 23.075 95.1214 23.075C97.1007 23.075 97.7785 24.8148 97.7785 26.4731C97.7785 29.9256 96.0704 35.2539 93.115 35.2539ZM117.87 18.7253C114.074 18.7253 111.932 22.0963 111.932 22.0963H111.878L112.203 19.0787H107.214C106.97 21.1176 106.509 24.2439 106.075 26.5547L102.198 47.1883H107.811L109.383 38.8424H109.519C109.519 38.8424 110.685 39.5764 112.8 39.5764C119.415 39.5764 123.726 32.7801 123.726 25.9294C123.699 22.1235 121.991 18.7253 117.87 18.7253ZM112.501 35.3083C111.037 35.3083 110.17 34.4656 110.17 34.4656L111.091 29.2188C111.742 25.6847 113.586 23.374 115.538 23.374C117.273 23.374 117.789 24.9779 117.789 26.4731C117.816 30.1159 115.647 35.3083 112.501 35.3083ZM131.725 10.6513C129.935 10.6513 128.498 12.0921 128.498 13.9135C128.498 15.5718 129.556 16.7408 131.156 16.7408H131.21C132.972 16.7408 134.463 15.5447 134.491 13.4786C134.518 11.8203 133.406 10.6513 131.725 10.6513ZM123.862 39.1686H129.475L133.27 19.1603H127.631L123.862 39.1686ZM147.587 19.1331H143.682L143.872 18.2088C144.197 16.2787 145.336 14.5932 147.234 14.5932C148.237 14.5932 149.024 14.8922 149.024 14.8922L150.108 10.461C150.108 10.461 149.159 9.97168 147.044 9.97168C145.065 9.97168 143.059 10.5426 141.54 11.8475C139.615 13.4786 138.72 15.8437 138.287 18.236L138.124 19.1603H135.494L134.653 23.4284H137.283L134.301 39.1958H139.913L142.896 23.4284H146.773L147.587 19.1331ZM161.116 19.1603C161.116 19.1603 157.592 28.0499 156.046 32.916H155.992C155.883 31.3393 154.609 19.1603 154.609 19.1603H148.698L152.087 37.4831C152.142 37.8909 152.115 38.1356 151.952 38.4074C151.301 39.6851 150.189 40.9085 148.888 41.8056C147.831 42.5668 146.638 43.0833 145.689 43.4095L147.261 48.1941C148.4 47.9494 150.786 46.998 152.765 45.1222C155.314 42.7299 157.7 39.0055 160.14 33.9491L167 19.1331H161.116V19.1603Z"></path>
            </svg>