<svg width="220" height="45" viewBox="0 0 220 45" fill="#7c8b97" xmlns="http://www.w3.org/2000/svg">
                <path fill-rule="evenodd" clip-rule="evenodd" d="M6.88188 0.110834C4.20967 0.110834 1.64727 1.88133 0.622312 4.35264C0.146438 5.42231 0.0366211 6.60264 0.0366211 7.74608C0.0549239 11.5453 0.0549239 15.3537 0.0549239 19.1667C0.054924 22.9797 0.054924 26.7973 0.0732269 30.6149C0.109833 34.119 3.1481 37.2543 6.62564 37.3649C10.7837 37.3807 14.9418 37.3762 19.097 37.3717C24.6356 37.3657 30.169 37.3597 35.6905 37.4018C38.3481 38.8404 40.9662 40.3188 43.5843 41.7971C45.3296 42.7827 47.0749 43.7682 48.832 44.742C48.3378 43.5063 47.8436 42.2799 47.3494 41.0535C46.8553 39.827 46.3611 38.6006 45.8669 37.3649C48.3195 37.3649 50.7721 37.369 53.2246 37.3731C58.1298 37.3813 63.035 37.3895 67.9401 37.3649C71.4177 37.2912 74.4559 34.119 74.4925 30.6149V7.22969C74.5291 5.23789 73.6872 3.24609 72.223 1.91822C70.9418 0.737892 69.1847 0.0739491 67.4276 0.110834H6.88188ZM34.2629 5.4592C33.421 4.09444 31.2978 3.72559 30.1997 4.90592C29.6005 5.64375 29.2435 6.53407 28.881 7.43822C28.8448 7.52845 28.8086 7.61882 28.772 7.7092C26.9784 12.3936 26.2829 17.4469 25.7338 22.4264C24.4526 19.1436 23.574 15.6764 22.9151 12.2092C22.7687 11.4346 22.5491 10.5863 22 9.99609C21.3045 9.25838 20.1331 9.22149 19.3278 9.73789C18.7421 10.1067 18.3394 10.7338 18.01 11.3608C15.8136 15.6026 13.6173 19.8076 11.421 24.0125C10.1031 18.7379 9.18801 13.3895 8.38268 8.00429C8.27287 7.30347 8.12644 6.52887 7.57736 6.04936C6.80864 5.34854 5.60065 5.42232 4.68551 5.75428C3.55073 6.19691 3.07486 7.59855 3.3311 8.74199C3.38364 9.06307 3.43611 9.38423 3.48858 9.70544C4.56938 16.3215 5.65388 22.9603 7.50415 29.3977C7.61318 29.7038 7.71226 30.0215 7.81234 30.3424C8.18265 31.5298 8.56647 32.7605 9.51746 33.6026C10.3228 34.2297 11.3843 33.6764 12.0066 33.0494C13.4709 31.574 14.4592 29.6928 15.3744 27.8485C16.6922 25.1559 18.0466 22.4264 19.401 19.7338C20.7554 24.3444 22.6223 28.9551 25.9168 32.533C26.6489 33.3445 27.7105 34.119 28.8452 33.8608C30.0532 33.5658 30.6023 32.201 30.5291 31.0576C30.3095 26.5945 30.8952 22.1313 31.5907 17.742C32.1764 14.3854 32.8353 10.9551 34.3727 7.85674C34.7388 7.11903 34.7022 6.16001 34.2629 5.4592ZM49.1614 9.92231C47.5507 8.11493 44.9883 7.30346 42.609 7.59855C41.1814 7.78297 39.827 8.41002 38.7288 9.40592C34.9584 12.91 33.4576 18.5166 34.3361 23.5699C34.7754 25.783 35.8369 27.9961 37.7404 29.324C40.1198 30.91 43.4143 31.0945 45.8669 29.5822C47.5507 28.5863 48.7221 26.9264 49.6373 25.2297C51.2479 22.242 51.8702 18.701 51.4675 15.3444C51.2113 13.3895 50.4792 11.4346 49.1614 9.92231ZM40.5957 15.16C41.218 14.201 41.9501 13.1313 43.0849 12.7625C43.8902 12.5043 44.8419 12.7994 45.3178 13.4633C46.4892 15.2338 46.6722 17.4838 46.3061 19.5125C45.9401 21.3199 45.2446 23.1272 43.8536 24.3444C43.2313 24.8977 42.4259 25.4141 41.5474 25.2666C40.7055 25.119 40.193 24.3444 39.8636 23.6436C38.619 20.951 39.0582 17.6682 40.5957 15.16ZM68.0499 9.77477C66.4393 8.04117 63.9135 7.30346 61.6073 7.59855C60.0333 7.78297 58.5324 8.59444 57.2878 9.701C53.4809 13.6846 52.0898 19.8813 53.7371 25.1559C54.3594 26.8895 55.421 28.5125 56.995 29.4715C59.3378 30.8731 62.4859 31.0207 64.8286 29.5822C66.5857 28.5494 67.7937 26.8526 68.7088 25.119C70.2463 22.242 70.8319 18.8485 70.5025 15.6026C70.2829 13.4633 69.5141 11.3608 68.0499 9.77477ZM59.5189 15.4357C60.1689 14.3799 60.897 13.1974 62.1198 12.7625C62.9251 12.5043 63.8769 12.7994 64.3161 13.4264C65.3777 14.9756 65.6705 16.9305 65.4509 18.7379C65.2313 20.6928 64.609 22.6846 63.1814 24.0862C62.5225 24.7133 61.7171 25.3035 60.802 25.2666C59.9601 25.2297 59.3378 24.5289 59.0083 23.7912C57.7271 21.1723 58.0932 17.9633 59.4842 15.492L59.5189 15.4357Z"></path>
                <path fill-rule="evenodd" clip-rule="evenodd" d="M87.0117 8.29948C89.025 7.85686 91.1482 7.89375 93.1615 8.37326C93.1615 10.0331 93.1615 11.6929 93.1615 13.3528C91.5142 12.947 89.6473 12.5782 88.0733 13.3528C86.1698 14.3118 85.1082 16.488 85.1082 18.5536C84.9984 20.6192 85.6939 22.9429 87.5242 24.1233C89.2081 25.2298 91.3678 25.0085 93.1981 24.4921C93.1981 26.1519 93.1981 27.8118 93.1981 29.4716C90.7455 30.1724 88.0733 30.0987 85.6939 29.2134C82.8387 28.1438 80.5691 25.6355 79.6906 22.6847C79.0317 20.4347 78.9585 18.0372 79.471 15.7503C80.3129 12.0987 83.3878 9.11096 87.0117 8.29948ZM101.874 8.04128C104.363 7.7462 107.072 8.15194 109.085 9.73801C111.025 11.2503 111.977 13.7216 112.343 16.0823C112.672 18.7011 112.599 21.4306 111.794 23.9388C111.098 26.0782 109.671 28.07 107.621 29.0659C105.534 30.0618 103.082 30.1355 100.849 29.6192C98.7987 29.1396 96.9685 27.7749 95.9435 25.8938C94.5159 23.3856 94.2596 20.3978 94.3695 17.5577C94.4793 15.1233 95.1016 12.5782 96.7122 10.697C98.03 9.18473 99.9335 8.26259 101.874 8.04128ZM102.642 12.7995C101.581 13.0577 100.958 14.1274 100.702 15.1233C100.19 17.1151 100.263 19.1806 100.409 21.2093C100.556 22.3159 100.666 23.4962 101.434 24.3815C102.459 25.5618 104.546 25.4142 105.461 24.197C106.083 23.4224 106.266 22.4265 106.376 21.4675C106.596 19.7708 106.632 18.0372 106.376 16.3405C106.193 15.3077 105.9 14.238 105.168 13.4634C104.509 12.7995 103.521 12.5782 102.642 12.7995ZM200.27 8.37326C202.393 7.81998 204.626 7.89375 206.749 8.33637C206.785 9.99621 206.749 11.656 206.785 13.3528C205.175 12.947 203.381 12.5782 201.807 13.279C199.977 14.1274 198.879 16.0823 198.732 18.0372C198.513 20.2503 199.098 22.7585 201.038 24.0495C202.722 25.2298 204.919 25.0085 206.785 24.4552C206.749 26.1151 206.822 27.8118 206.749 29.4716C204.15 30.1355 201.295 30.0618 198.842 28.9921C196.133 27.8118 194.01 25.3036 193.241 22.4265C192.656 20.2134 192.582 17.8528 193.132 15.6028C193.937 12.1355 196.829 9.29539 200.27 8.37326ZM115.601 8.5208C117.944 8.5208 120.323 8.5208 122.666 8.5208C123.508 12.3569 124.313 16.2298 125.045 20.1028C125.704 16.1929 126.619 12.3569 127.534 8.5208C129.95 8.5208 132.366 8.5208 134.782 8.5208C135.734 15.4921 136.649 22.4634 137.564 29.3979C135.734 29.3979 133.867 29.3979 132.037 29.3979C131.524 24.6397 131.085 19.8446 130.536 15.0864C129.401 19.8446 128.23 24.6397 127.095 29.3979C125.85 29.3979 124.569 29.3979 123.325 29.3979C122.117 24.6397 120.945 19.8446 119.701 15.0495C119.225 19.8077 118.749 24.6028 118.273 29.3979C116.516 29.3979 114.759 29.3979 112.965 29.3979C113.844 22.4634 114.722 15.4921 115.601 8.5208ZM140.932 8.5208C143.275 8.5208 145.654 8.5208 147.997 8.5208C148.839 12.3569 149.644 16.2298 150.376 20.1028C151.072 16.2298 151.95 12.3569 152.865 8.5208H160.077C161.028 15.4921 161.944 22.4634 162.859 29.3979C161.028 29.3979 159.161 29.3979 157.331 29.3979C156.819 24.6397 156.343 19.8446 155.83 15.0864C154.696 19.8446 153.561 24.6397 152.389 29.3979C151.145 29.3979 149.864 29.3979 148.619 29.3979C147.411 24.6028 146.203 19.8446 144.995 15.0495C144.519 19.8446 144.043 24.6028 143.567 29.3979C141.81 29.3979 140.053 29.3979 138.26 29.3979C139.175 22.4634 140.053 15.4921 140.932 8.5208ZM164.469 8.59456C168.24 8.52079 172.047 8.59457 175.817 8.55768C175.817 10.0331 175.817 11.5085 175.817 13.0208C173.914 13.0577 172.01 13.0208 170.107 13.0208C170.107 14.3118 170.107 15.5659 170.107 16.8569C171.754 16.8569 173.401 16.8569 175.048 16.8569C175.048 18.2954 175.048 19.7339 175.048 21.1724C173.401 21.1724 171.754 21.1724 170.107 21.1724C170.107 22.4265 170.107 23.7175 170.107 25.0085C172.01 25.0085 173.95 25.0085 175.854 25.0085C175.854 26.4839 175.854 27.9593 175.854 29.4716C172.083 29.4716 168.276 29.4716 164.506 29.4716C164.469 22.5003 164.543 15.5659 164.469 8.59456ZM177.428 8.5208C179.807 8.5208 182.15 8.48391 184.529 8.5208C186.762 8.59457 189.142 9.14785 190.789 10.7339C192.29 12.1356 192.802 14.4593 192.216 16.4142C191.741 18.0003 190.569 19.2913 189.105 19.9921C190.569 23.1274 192.07 26.2626 193.571 29.3979C191.594 29.3979 189.617 29.3979 187.677 29.3979C186.14 26.1888 184.639 22.9798 183.065 19.8077C183.028 23.0167 183.065 26.2257 183.065 29.3979C181.198 29.3979 179.331 29.3979 177.464 29.3979C177.428 22.4634 177.428 15.4921 177.428 8.5208ZM183.028 12.5413C183.028 14.2011 183.028 15.861 183.028 17.5208C184.053 17.447 185.151 17.4101 185.993 16.7831C186.982 16.0454 186.872 14.5331 186.25 13.5741C185.481 12.6519 184.127 12.6519 183.028 12.5413ZM208.359 8.55768C212.13 8.55768 215.9 8.55768 219.671 8.55768C219.671 10.0331 219.671 11.5454 219.671 13.0208C217.767 13.0208 215.827 13.0208 213.924 13.0208C213.924 14.3118 213.924 15.5659 213.924 16.8569C215.571 16.8569 217.218 16.8569 218.865 16.8569C218.865 18.2954 218.865 19.7339 218.865 21.1724H213.924C213.924 22.4634 213.924 23.7175 213.924 25.0085C215.864 25.0085 217.767 25.0085 219.707 25.0085C219.707 26.4839 219.707 27.9593 219.707 29.4716C215.937 29.4716 212.13 29.4716 208.359 29.4716C208.323 22.4634 208.359 15.4921 208.359 8.55768Z"></path>
            </svg>